<svg width="64" height="64" viewBox="0 0 64 64" fill="none" xmlns="http://www.w3.org/2000/svg">
<path d="M45.3333 24.0013C45.3333 25.4158 44.7714 26.7723 43.7712 27.7725C42.771 28.7727 41.4144 29.3346 40 29.3346C38.5855 29.3346 37.2289 28.7727 36.2287 27.7725C35.2285 26.7723 34.6666 25.4158 34.6666 24.0013C34.6666 22.5868 35.2285 21.2303 36.2287 20.2301C37.2289 19.2299 38.5855 18.668 40 18.668C41.4144 18.668 42.771 19.2299 43.7712 20.2301C44.7714 21.2303 45.3333 22.5868 45.3333 24.0013Z" fill="white"/>
<path fill-rule="evenodd" clip-rule="evenodd" d="M32 3.33398C16.168 3.33398 3.33331 16.1687 3.33331 32.0007C3.33331 47.8327 16.168 60.6673 32 60.6673C47.832 60.6673 60.6666 47.8327 60.6666 32.0007C60.6666 16.1687 47.832 3.33398 32 3.33398ZM29.8186 40.966L18.3786 29.526C17.2783 28.4266 15.8013 27.7864 14.2467 27.7349C12.6921 27.6834 11.176 28.2245 10.0053 29.2487L7.33598 31.6327C7.3944 27.7807 8.35422 23.996 10.1385 20.5818C11.9229 17.1676 14.4821 14.2187 17.6111 11.9715C20.7402 9.72433 24.352 8.24128 28.1574 7.64118C31.9627 7.04108 35.8557 7.34062 39.5245 8.51581C43.1932 9.69099 46.5357 11.7091 49.2842 14.4086C52.0326 17.108 54.1106 20.4136 55.3516 24.0606C56.5926 27.7077 56.9621 31.5946 56.4306 35.4102C55.899 39.2257 54.4812 42.8637 52.2906 46.0326L47.4026 41.598C46.0568 40.3869 44.3401 39.6681 42.5328 39.5592C40.7256 39.4502 38.9349 39.9574 37.4533 40.998L36.656 41.558C35.6289 42.2798 34.3801 42.6161 33.1294 42.5078C31.8788 42.3995 30.7064 41.8536 29.8186 40.966Z" fill="white"/>
</svg>
